<?xml version="1.0" encoding="UTF-8"?>
<svg width="63px" height="15px" viewBox="0 0 63 15" version="1.1" xmlns="http://www.w3.org/2000/svg" xmlns:xlink="http://www.w3.org/1999/xlink">
    <!-- Generator: Sketch 50.2 (55047) - http://www.bohemiancoding.com/sketch -->
    <title>AM Logo</title>
    <desc>Created with Sketch.</desc>
    <defs></defs>
    <g id="Page-1" stroke="none" stroke-width="1" fill="none" fill-rule="evenodd">
        <g id="Music-(Desktop-HD)" transform="translate(-539.000000, -600.000000)" fill="#FFFFFF" fill-rule="nonzero">
            <g id="Apple-Music" transform="translate(510.000000, 589.000000)">
                <g id="AM-Logo" transform="translate(29.000000, 11.000000)">
                    <path d="M9.93863415,7.9506673 C9.91865854,6.73029833 10.4451311,5.78031051 11.5168994,5.10031923 C10.9124451,4.22033051 10.0210335,3.72572147 8.84228049,3.61514596 C8.42298476,3.57572339 7.88690854,3.67495289 7.23482012,3.91533442 C6.5333689,4.1757157 6.13846646,4.30513711 6.0508811,4.30513711 C5.86572256,4.30513711 5.51019512,4.19571544 4.98333841,3.97514134 C4.45763415,3.75514416 4.00914329,3.64514558 3.63882622,3.64514558 C3.01535671,3.65533775 2.43529573,3.82783554 1.89960366,4.16263894 C1.36371951,4.49782695 0.935204268,4.9557057 0.613865854,5.53512134 C0.20417378,6.25549672 0,7.115678 0,8.11547288 C0,9.01546134 0.150585366,9.9152575 0.45252439,10.8158229 C0.735064024,11.6760042 1.09616159,12.4309945 1.53408841,13.0804092 C1.92342073,13.670594 2.26569512,14.1005885 2.55707012,14.3709696 C2.97655793,14.7907719 3.40468902,14.991154 3.84376829,14.9707696 C4.12611585,14.9603851 4.49604878,14.8555788 4.95414329,14.6550044 C5.38246646,14.4659684 5.81155793,14.3707773 6.24045732,14.3707773 C6.63977744,14.3707773 7.05350305,14.4653915 7.48278659,14.6550044 C7.95989634,14.8555788 8.34999695,14.9553852 8.65193598,14.9553852 C9.10023476,14.9357701 9.51895427,14.7405802 9.90924695,14.3709696 C10.0450427,14.2503942 10.1938994,14.0855886 10.3544726,13.8755913 C10.5398444,13.630993 10.7178482,13.3808837 10.8882439,13.125601 C11.0302294,12.9054667 11.1643179,12.6803261 11.290253,12.4506096 C11.4253502,12.2032404 11.5449233,11.9476846 11.6482774,11.6854271 C11.6964878,11.5754285 11.7402805,11.4631223 11.7796555,11.3481237 C11.8184543,11.2331252 11.8574451,11.1160113 11.896436,10.9958206 C11.5359146,10.8362072 11.2093902,10.6102486 10.917247,10.32006 C10.2749543,9.68102973 9.94842988,8.89065525 9.93863415,7.9506673 Z M20.5366555,10.6248638 L20.4657805,10.6248638 L17.4976738,3.833797 L15.1668659,3.833797 L15.1668659,14.7907719 L17.1982317,14.7907719 L17.1982317,7.69451674 L17.2925396,7.69451674 L19.7729726,13.3294445 L21.1975793,13.3294445 L23.6701372,7.69451674 L23.7648293,7.69451674 L23.7648293,14.7907719 L25.819628,14.7907719 L25.819628,3.833797 L23.5047622,3.833797 L20.5366555,10.6248638 Z M8.09665244,2.40035384 C8.61332927,1.75016987 8.87166768,1.05017884 8.87166768,0.299996154 L8.87166768,0.150190382 C8.87166768,0.0998064127 8.86667378,0.049999359 8.85707012,0 C8.49635671,0.0199997436 8.1141311,0.135190574 7.70943293,0.344803272 C7.30531098,0.55518519 6.97167988,0.820566403 6.70815549,1.13998538 C6.18225915,1.77055422 5.91892683,2.44516096 5.91892683,3.16534403 L5.91892683,3.3074576 C5.91892683,3.35284163 5.92392073,3.40014872 5.93352439,3.45053269 C6.74253659,3.53033935 7.46357927,3.18015154 8.09665244,2.40035384 Z M49.5614085,3.833797 L51.8445823,3.833797 L51.8445823,14.7909642 L49.5614085,14.7909642 L49.5614085,3.833797 Z M58.7403933,5.57550544 C60.0945091,5.57550544 60.8105579,6.61914591 60.8105579,7.74297765 L63,7.74297765 L63,7.51009602 C63,5.39108473 61.3858171,3.62533814 58.7244512,3.62533814 C55.8740854,3.62533814 54.1736616,5.50358329 54.1736616,8.70661915 L54.1736616,9.94294945 C54.1736616,13.1450238 55.8583354,15 58.7163841,15 C61.448625,15 63,13.2092537 63,11.2188946 L63,10.9781285 L60.81075,10.9781285 C60.81075,12.1104217 60.1102591,13.0494481 58.7565274,13.0494481 C57.3703354,13.0494481 56.4883354,12.0619607 56.4883354,9.95044935 L56.4883354,8.71508058 C56.4883354,6.61087678 57.3784024,5.57550544 58.7403933,5.57550544 Z M34.5520427,10.7529391 C34.5520427,12.2223433 33.6938598,13.0327175 32.4342439,13.0327175 C31.166561,13.0327175 30.3085701,12.2300355 30.3085701,10.7529391 L30.3085701,3.833797 L28.0407622,3.833797 L28.0407622,11.0740888 C28.0407622,13.4105973 29.693936,14.9998077 32.4338598,14.9998077 C35.1661006,14.9998077 36.8271494,13.4105973 36.8271494,11.0740888 L36.8271494,3.833797 L34.5520427,3.833797 L34.5520427,10.7529391 Z M44.3811951,8.40931527 L42.7516463,8.04047384 C41.7912805,7.83913027 41.2872805,7.41394341 41.2872805,6.77952847 C41.2872805,5.93703927 41.9720213,5.40704606 43.0749055,5.40704606 C44.3187713,5.40704606 44.9407043,6.12145998 44.9956372,6.89221933 L47.121503,6.89221933 C47.097878,4.95743644 45.4840793,3.60899219 43.0823963,3.60899219 C40.8072896,3.60899219 39.0119817,4.80532301 39.0119817,6.95644928 C39.0119817,8.81873309 40.2719817,9.68506814 41.7835976,10.0150639 L43.3973963,10.3919822 C44.4839543,10.6408251 45.0350122,11.0023589 45.0350122,11.7483109 C45.0350122,12.5998385 44.3577622,13.177908 43.0904634,13.177908 C41.7282805,13.177908 41.0116555,12.4552249 40.9490396,11.6442738 L38.7599817,11.6442738 C38.7920579,13.193677 39.8154238,14.9998077 42.9805976,14.9998077 C45.6415793,14.9998077 47.2874543,13.6754016 47.2874543,11.5233138 C47.286686,9.5325701 45.956003,8.75392623 44.3811951,8.40931527 Z" id="Shape"></path>
                </g>
            </g>
        </g>
    </g>
</svg>