<?xml version="1.0" encoding="UTF-8"?>
<svg width="63px" height="19px" viewBox="0 0 63 19" version="1.1" xmlns="http://www.w3.org/2000/svg" xmlns:xlink="http://www.w3.org/1999/xlink">
    <!-- Generator: Sketch 50.2 (55047) - http://www.bohemiancoding.com/sketch -->
    <title>Spotify Logo</title>
    <desc>Created with Sketch.</desc>
    <defs></defs>
    <g id="Page-1" stroke="none" stroke-width="1" fill="none" fill-rule="evenodd">
        <g id="Music-(Desktop-HD)" transform="translate(-689.000000, -600.000000)" fill="#FFFFFF" fill-rule="nonzero">
            <g id="Spotify" transform="translate(660.000000, 589.000000)">
                <g id="Spotify-Logo" transform="translate(29.000000, 11.000000)">
                    <path d="M9.44764051,0 C4.22996427,0 0,4.25326568 0,9.49982822 C0,14.7469547 4.22996427,19 9.44764051,19 C14.6655488,19 18.895281,14.7469612 18.895281,9.49982822 C18.895281,4.25360276 14.665768,0.000453767412 9.44752447,0.000453767412 L9.44764051,0 Z M13.7802685,13.7014811 C13.6105913,13.9813454 13.2479966,14.0690327 12.9705757,13.8985263 C10.7520273,12.535072 7.95957427,12.2270741 4.6709573,12.9824866 C4.35405682,13.0555497 4.03816846,12.8557753 3.96597186,12.5372241 C3.89342713,12.2185692 4.09119258,11.900932 4.40888601,11.8283357 C8.00775047,11.001001 11.0947662,11.3570982 13.5849786,12.8871955 C13.8625091,13.0584991 13.9505001,13.4226475 13.7801524,13.701708 L13.7802685,13.7014811 Z M14.9366391,11.11513 C14.7229631,11.4637336 14.2696634,11.5730915 13.9234304,11.3590235 C11.3844809,9.78967539 7.51293392,9.33511065 4.50918379,10.2519542 C4.11962253,10.3702708 3.70818117,10.149513 3.58994867,9.75848212 C3.47261871,9.36676416 3.69227716,8.95383582 4.08115506,8.83472187 C7.51226347,7.78788693 11.7776459,8.29496554 14.6939659,10.0969926 C15.0403214,10.3113977 15.1497477,10.767434 14.936523,11.1152402 L14.9366391,11.11513 Z M15.0359183,8.42156664 C11.9905289,6.60298354 6.96723357,6.43577025 4.06004857,7.32299574 C3.59321715,7.46536202 3.09952878,7.20036185 2.95805592,6.73093947 C2.81658306,6.26129668 3.07989857,5.76521221 3.54707166,5.62250236 C6.8843161,4.603801 12.4321021,4.80061938 15.9377731,6.893278 C16.3576789,7.14386781 16.4954321,7.68917956 16.2465507,8.11084617 C15.9983527,8.53307674 15.4545735,8.67226666 15.0360278,8.42156664 L15.0359183,8.42156664 Z M25.7039064,8.77006002 C24.0726783,8.37891251 23.7822866,8.10438971 23.7822866,7.52752816 C23.7822866,6.98255998 24.2925559,6.61580571 25.0513649,6.61580571 C25.7869335,6.61580571 26.5162939,6.89430222 27.2809693,7.46763734 C27.3041001,7.48499719 27.3330974,7.49190742 27.3616369,7.48737622 C27.3901829,7.48306543 27.415454,7.46729378 27.4321509,7.44358767 L28.2286409,6.31461435 C28.2613579,6.26810319 28.2524421,6.20401178 28.2083337,6.16850124 C27.2982401,5.43419537 26.273408,5.07719061 25.0755206,5.07719061 C23.3142174,5.07719061 22.0839483,6.14002409 22.0839483,7.66071538 C22.0839483,9.29143877 23.1452172,9.86885781 24.9791747,10.3145676 C26.5401144,10.6761036 26.803546,10.9789998 26.803546,11.5204545 C26.803546,12.1204452 26.2708164,12.493442 25.4135212,12.493442 C24.4613499,12.493442 23.6847158,12.1709301 22.8159068,11.4143831 C22.7943619,11.395662 22.7647973,11.3871636 22.737502,11.3887518 C22.7087304,11.3911308 22.6824407,11.4045169 22.6641708,11.4266413 L21.7711093,12.4953738 C21.7336539,12.5397263 21.7383923,12.6059764 21.7817205,12.6443262 C22.7925568,13.5517443 24.0357967,14.0310394 25.3774261,14.0310394 C27.2753414,14.0310394 28.5017811,12.9882819 28.5017811,11.3743479 C28.5051656,10.0119112 27.6940159,9.2575229 25.7073038,8.771538 L25.7039064,8.77006002 Z M32.7955871,7.15237919 C31.97293,7.15237919 31.2981667,7.47818419 30.7417519,8.14578626 L30.7417519,7.39434742 C30.7417519,7.33502057 30.6939174,7.28669435 30.6350268,7.28669435 L29.1743848,7.28669435 C29.1153846,7.28669435 29.0676597,7.33502057 29.0676597,7.39434742 L29.0676597,15.7438817 C29.0676597,15.8032086 29.1153781,15.8515348 29.1743848,15.8515348 L30.6350268,15.8515348 C30.6939174,15.8515348 30.7417519,15.8032151 30.7417519,15.7438817 L30.7417519,13.1082904 C31.2982827,13.7363045 31.9731556,14.043168 32.7955871,14.043168 C34.324145,14.043168 35.8715532,12.8599759 35.8715532,10.5981722 C35.8738095,8.3358046 34.3259566,7.15226899 32.7972826,7.15226899 L32.7955871,7.15237919 Z M34.1730859,10.5981722 C34.1730859,11.7499506 33.4675267,12.5536829 32.4572449,12.5536829 C31.4584832,12.5536829 30.7050895,11.7134159 30.7050895,10.5981722 C30.7050895,9.4830453 31.4584832,8.64266806 32.4572449,8.64266806 C33.4511715,8.64255137 34.173202,9.46477793 34.173202,10.5980556 L34.1730859,10.5981722 Z M39.8376346,7.15237919 C37.8690893,7.15237919 36.3268772,8.67658393 36.3268772,10.6227859 C36.3268772,12.5477774 37.8584845,14.0559836 39.8134917,14.0559836 C41.7890317,14.0559836 43.3359757,12.536887 43.3359757,10.5981658 C43.3359757,8.6661408 41.7994044,7.15260607 39.8375186,7.15260607 L39.8376346,7.15237919 Z M39.8376346,12.5651373 C38.7905743,12.5651373 38.0011951,11.7191981 38.0011951,10.5976018 C38.0011951,9.47123439 38.763279,8.65388908 39.8134853,8.65388908 C40.8673146,8.65388908 41.661993,9.49982173 41.661993,10.6222154 C41.661993,11.7483559 40.894842,12.5651373 39.8377378,12.5651373 L39.8376346,12.5651373 Z M47.5396503,7.28670083 L45.9323459,7.28670083 L45.9323459,5.6343068 C45.9323459,5.57509015 45.884737,5.52676392 45.8257368,5.52676392 L44.3653204,5.52676392 C44.3062042,5.52676392 44.2582601,5.57509015 44.2582601,5.6343068 L44.2582601,7.28670083 L43.5559693,7.28670083 C43.4971948,7.28670083 43.4495794,7.33502057 43.4495794,7.39435391 L43.4495794,8.65661816 C43.4495794,8.71583481 43.4971948,8.76427124 43.5559693,8.76427124 L44.2582601,8.76427124 L44.2582601,12.0303724 C44.2582601,13.3502651 44.9115817,14.0194618 46.2000645,14.0194618 C46.7239943,14.0194618 47.1586696,13.9106679 47.5683123,13.6770943 C47.6015902,13.6583732 47.6222325,13.6223052 47.6222325,13.5839618 L47.6222325,12.3819319 C47.6222325,12.3448332 47.6030471,12.3097829 47.5714648,12.2903876 C47.5396503,12.2703052 47.5000546,12.2692874 47.4674472,12.2855064 C47.1860745,12.4278791 46.9140817,12.4935587 46.610036,12.4935587 C46.1413995,12.4935587 45.9323459,12.2796074 45.9323459,11.8000919 L45.9323459,8.76484817 L47.5396503,8.76484817 C47.5986505,8.76484817 47.6461498,8.71652194 47.6461498,8.6571951 L47.6461498,7.39504104 C47.6484061,7.33571419 47.6010229,7.28738796 47.5412362,7.28738796 L47.5396503,7.28670083 Z M53.1398996,7.29316377 L53.1398996,7.09021306 C53.1398996,6.49316534 53.3675584,6.22692055 53.8781758,6.22692055 C54.1826664,6.22692055 54.4272606,6.28772539 54.7011745,6.37961329 C54.7349101,6.3902833 54.7701027,6.3849483 54.7975205,6.36463896 C54.8257248,6.34432963 54.8416353,6.31177506 54.8416353,6.27728874 L54.8416353,5.03963812 C54.8416353,4.99232962 54.8114002,4.95047282 54.7660412,4.93651623 C54.4766617,4.84995686 54.1064019,4.76113513 53.5520243,4.76113513 C52.2029489,4.76113513 51.4898342,5.52505257 51.4898342,6.96950444 L51.4898342,7.28033512 L50.7881107,7.28033512 C50.7292201,7.28033512 50.6809343,7.32866135 50.6809343,7.387878 L50.6809343,8.65661168 C50.6809343,8.71582833 50.7292201,8.76426476 50.7881107,8.76426476 L51.4898342,8.76426476 L51.4898342,13.8020943 C51.4898342,13.8614211 51.5374431,13.9097474 51.5963401,13.9097474 L53.0569821,13.9097474 C53.1159823,13.9097474 53.1640424,13.8614211 53.1640424,13.8020943 L53.1640424,8.76461481 L54.5277776,8.76461481 L56.6168118,13.8011997 C56.3796699,14.3304027 56.1464669,14.4356768 55.8281095,14.4356768 C55.57077,14.4356768 55.299783,14.3584196 55.0226973,14.2059538 C54.9966397,14.1915434 54.9657278,14.1891644 54.9376395,14.1979026 C54.9097704,14.2077688 54.8863109,14.2286421 54.8744619,14.2558682 L54.3794197,15.3479697 C54.3558376,15.3995889 54.3760352,15.4601734 54.4254491,15.4869392 C54.9422618,15.7683852 55.4087709,15.8885169 55.9853767,15.8885169 C57.0639034,15.8885169 57.6600363,15.3833635 58.1855391,14.0243301 L60.7195182,7.44017793 C60.7322633,7.40705291 60.7284339,7.3696171 60.7082364,7.3402389 C60.6881678,7.3110811 60.6557796,7.29350086 60.6203486,7.29350086 L59.0997974,7.29350086 C59.0542321,7.29350086 59.0134825,7.32265217 58.9986035,7.36564988 L57.4409451,11.8395632 L55.7348128,7.36270039 C55.7192505,7.32106399 55.6793132,7.29349437 55.6350888,7.29349437 L53.1395643,7.29349437 L53.1398996,7.29316377 Z M49.8930185,7.28670083 L48.4323766,7.28670083 C48.3733699,7.28670083 48.3253162,7.33502057 48.3253162,7.39435391 L48.3253162,13.8021008 C48.3253162,13.8614276 48.3733699,13.9097538 48.4323766,13.9097538 L49.8930185,13.9097538 C49.9519091,13.9097538 50.0000789,13.8614276 50.0000789,13.8021008 L50.0000789,7.39480119 C50.0001426,7.36620888 49.9888666,7.338771 49.9687486,7.31856469 C49.9486305,7.29835839 49.9213308,7.28705141 49.892896,7.28714811 L49.8930185,7.28670083 Z M49.170988,4.36909305 C48.5923514,4.36909305 48.122806,4.84009714 48.122806,5.42194365 C48.122806,6.00412724 48.5924675,6.47570826 49.1709944,6.47570826 C49.7494118,6.47570826 50.2184931,6.00412724 50.2184931,5.42194365 C50.2184931,4.84021382 49.7491797,4.36909305 49.1715618,4.36909305 L49.170988,4.36909305 Z M61.9667034,9.3469086 C61.3886277,9.3469086 60.9388349,8.88009213 60.9388349,8.31322643 C60.9388349,7.74636073 61.3945007,7.27421574 61.9721186,7.27421574 C62.5502072,7.27421574 63,7.74091553 63,8.30732746 C63,8.87419964 62.5442118,9.3469086 61.9666003,9.3469086 L61.9667034,9.3469086 Z M61.9723443,7.37699406 C61.4458293,7.37699406 61.0474683,7.79786334 61.0474683,8.31322643 C61.0474683,8.82836913 61.4430056,9.24356631 61.9670451,9.24356631 C62.493444,9.24356631 62.8922627,8.8230406 62.8922627,8.30732746 C62.8922627,7.79219124 62.4962677,7.37699406 61.972802,7.37699406 L61.9723443,7.37699406 Z M62.200248,8.41361923 L62.4909814,8.82292392 L62.2458327,8.82292392 L61.9840837,8.44743139 L61.7590294,8.44743139 L61.7590294,8.82292392 L61.553818,8.82292392 L61.553818,7.73796604 L62.0349804,7.73796604 C62.2856604,7.73796604 62.4504896,7.86694618 62.4504896,8.08408037 C62.4516114,8.2619572 62.3489541,8.37063449 62.201157,8.41362571 L62.200248,8.41362571 L62.200248,8.41361923 Z M62.0265094,7.92412736 L61.758894,7.92412736 L61.758894,8.26729221 L62.0265094,8.26729221 C62.1600786,8.26729221 62.2398308,8.20160613 62.2398308,8.09554124 C62.2398308,7.98391446 62.159737,7.92413384 62.0266126,7.92413384 L62.0265094,7.92413384 L62.0265094,7.92412736 Z" id="Shape"></path>
                </g>
            </g>
        </g>
    </g>
</svg>