<?xml version="1.0" encoding="UTF-8"?>
<svg width="175px" height="42px" viewBox="0 0 175 42" version="1.1" xmlns="http://www.w3.org/2000/svg" xmlns:xlink="http://www.w3.org/1999/xlink">
    <title>logo_ondark</title>
    <g id="Page-1" stroke="none" stroke-width="1" fill="none" fill-rule="evenodd">
        <g id="About-2.0" transform="translate(-395.000000, -1702.000000)" fill-rule="nonzero">
            <g id="Vultr" transform="translate(380.000000, 1681.000000)">
                <g id="logo_ondark" transform="translate(15.000000, 21.000000)">
                    <g id="text" transform="translate(59.000000, 8.000000)" fill="#FFFFFF">
                        <path d="M115.822193,22.9909195 L110.959978,14.5713323 C114.262885,13.1580259 116.119582,9.60528119 115.401829,6.07195965 C114.684077,2.53863811 111.590098,0.000553991846 107.999983,0 L97.3333314,0 C96.5969528,0 96,0.599614676 96,1.33927686 L96,23.6605579 C96,24.4002201 96.5969528,24.9999187 97.3333314,24.9999187 L98.222219,24.9999187 C98.9585976,24.9999187 99.5555504,24.4002201 99.5555504,23.6605579 L99.5555504,15.1784711 L107.324428,15.1784711 L112.613309,24.3301964 C112.851843,24.7489968 113.29743,25.0052409 113.777752,24.9999187 L114.66664,24.9999187 C115.403018,24.9999187 115.999986,24.4002201 115.999986,23.6605579 C116.001079,23.4254334 115.939709,23.1942701 115.822193,22.9909195 L115.822193,22.9909195 Z M99.5555504,3.57140497 L107.999983,3.57140497 C110.209118,3.57140497 111.999977,5.370249 111.999977,7.58923556 C111.999977,9.80822212 110.209118,11.6070662 107.999983,11.6070662 L99.5555504,11.6070662 L99.5555504,3.57140497 Z" id="形状"></path>
                        <path d="M88.6875,0 L70.3125,0 C69.5876263,0 69,0.599618639 69,1.33928571 L69,2.23214286 C69,2.97180993 69.5876263,3.57142857 70.3125,3.57142857 L77.75,3.57142857 L77.75,23.6607143 C77.75,24.4003814 78.3376263,25 79.0625,25 L79.9375,25 C80.6623737,25 81.25,24.4003814 81.25,23.6607143 L81.25,3.57142857 L88.6875,3.57142857 C89.4123737,3.57142857 90,2.97180993 90,2.23214286 L90,1.33928571 C90,0.599618639 89.4123737,0 88.6875,0 Z" id="路径"></path>
                        <path d="M69.6578947,21.4285714 L57.5789474,21.4285714 L57.5789474,1.33928571 C57.5789474,0.599618639 56.9780664,0 56.2368421,0 L55.3421053,0 C54.600881,0 54,0.599618639 54,1.33928571 L54,23.6607143 C54,24.4003814 54.600881,25 55.3421053,25 L69.6578947,25 C70.399119,25 71,24.4003814 71,23.6607143 L71,22.7678571 C71,22.0281901 70.399119,21.4285714 69.6578947,21.4285714 Z" id="路径"></path>
                        <path d="M47,1.36842105 C47,0.612662974 46.4160236,0 45.6956522,0 L44.826087,0 C44.1057155,0 43.5217391,0.612662974 43.5217391,1.36842105 L43.5217391,15.5087719 C43.5217391,19.2875623 40.6018571,22.3508772 37,22.3508772 C33.3981429,22.3508772 30.4782609,19.2875623 30.4782609,15.5087719 L30.4782609,1.36842105 C30.4782609,0.612662974 29.8942845,0 29.173913,0 L28.3043478,0 C27.5839764,0 27,0.612662974 27,1.36842105 L27,15.5087719 C27,21.3029172 31.4771525,26 37,26 C42.5228475,26 47,21.3029172 47,15.5087719 L47,1.36842105 Z" id="路径"></path>
                        <path d="M20.68,0 L19.8,0 C19.2617495,0.000562943674 18.7777467,0.33265618 18.5768,0.839285438 L11,20.1696362 L3.37920018,0.839285438 C3.17825348,0.33265618 2.69425075,0.000562943674 2.15600019,0 L1.2760002,0 C0.564223,0.0240858167 -0.000395550017,0.616707538 0,1.33928527 C0.00148704704,1.51059422 0.0343099676,1.68013404 0.096800207,1.83928511 L8.89680012,24.1607063 C9.09575691,24.6689624 9.58100243,25.0019084 10.1200001,25 L11.8800001,25 C12.4189978,25.0019084 12.9042433,24.6689624 13.1032001,24.1607063 L21.9032,1.83928511 C21.9656902,1.68013404 21.9985132,1.51059422 22,1.33928527 C22,0.984084734 21.860929,0.643432284 21.613381,0.392267575 C21.3658329,0.141102865 21.0300858,0 20.68,0 Z" id="路径"></path>
                    </g>
                    <g id="sygnet">
                        <path d="M17.0683333,1.13076923 C16.6208329,0.42879472 15.8412325,0.00213596633 15.0021667,-7.06278853e-07 L2.45,-7.06278853e-07 C1.55730179,-0.000672478757 0.734888551,0.478920844 0.303376708,1.25181131 C-0.128135135,2.02470178 -0.100439442,2.96854475 0.375666667,3.71538462 L2.94816667,7.75384615 L19.649,5.16923077 L17.0683333,1.13076923 Z" id="路径" fill="#007BFC"></path>
                        <path d="M19.649,5.16923077 C19.1999498,4.46483084 18.416636,4.03782758 17.5746667,4.03846083 L5.0225,4.03846083 C4.12980179,4.03778906 3.30738855,4.51738238 2.87587671,5.29027285 C2.44436487,6.06316332 2.47206056,7.00700629 2.94816667,7.75384615 L6.53333333,13.4076923 L23.226,10.8230769 L19.649,5.16923077 Z" id="路径" fill="#51B9FF"></path>
                        <path d="M6.53333333,13.4076923 C6.29214212,13.0196748 6.17014118,12.5707063 6.18216667,12.1153846 C6.18216667,10.7771562 7.27906903,9.69230699 8.63216667,9.69230699 L21.1761667,9.69230699 C22.018136,9.69167373 22.8014498,10.118677 23.2505,10.8230769 L34.4796667,28.4388462 C34.9830431,29.228464 34.9830431,30.2338437 34.4796667,31.0234615 L28.2076667,40.8692308 C27.7593253,41.5747517 26.9758845,42.0029312 26.1333333,42.0029312 C25.2907821,42.0029312 24.5073414,41.5747517 24.059,40.8692308 L6.53333333,13.4076923 Z" id="路径" fill="#FFFFFF"></path>
                        <path d="M38.2036667,18.6819231 C38.6527797,19.3837814 39.4340862,19.8092201 40.2739167,19.8092201 C41.1137471,19.8092201 41.8950536,19.3837814 42.3441667,18.6819231 L44.5083333,15.2976923 L48.5916667,8.83615385 C49.0984833,8.04460296 49.0984833,7.03501243 48.5916667,6.24346154 L45.325,1.12269231 C44.8802572,0.431013253 44.112086,0.00860350549 43.2833333,-7.06278853e-07 L30.7311667,-7.06278853e-07 C29.8384685,-0.000672478757 29.0160552,0.478920844 28.5845434,1.25181131 C28.1530315,2.02470178 28.1807272,2.96854475 28.6568333,3.71538462 L38.2036667,18.6819231 Z" id="路径" fill="#FFFFFF"></path>
                    </g>
                </g>
            </g>
        </g>
    </g>
</svg>