<?xml version="1.0" encoding="UTF-8"?>
<svg width="136px" height="47px" viewBox="0 0 136 47" version="1.1" xmlns="http://www.w3.org/2000/svg" xmlns:xlink="http://www.w3.org/1999/xlink">
    <title>Shape</title>
    <g id="Page-1" stroke="none" stroke-width="1" fill="none" fill-rule="evenodd">
        <g id="About-2.0" transform="translate(-194.000000, -1700.000000)" fill="#FFFFFF" fill-rule="nonzero">
            <g id="Django" transform="translate(160.000000, 1681.000000)">
                <path d="M49.7086904,19 L57,19 L57,52.998514 C53.2651978,53.7172386 50.5157078,54 47.5410037,54 C38.635659,53.9905431 34,49.9429884 34,42.1694137 C34,34.679546 38.9171767,29.8186976 46.5369237,29.8186976 C47.7192982,29.8186976 48.620155,29.9132666 49.7086904,30.1969738 L49.7086904,19 L49.7086904,19 Z M50,36.3672534 C49.1746031,36.0918134 48.494331,36 47.6235828,36 C44.0589569,36 42,38.2218822 42,42.1156848 C42,45.9066564 43.968254,48 47.5782312,48 C48.3582766,48 48.9931972,47.9550114 50,47.8172915 L50,36.3672534 L50,36.3672534 Z M70,30 L70,47.2394366 C70,53.1765071 69.5510735,56.0315494 68.2335719,58.4929577 C67.0039037,60.8595494 65.3838647,62.3517184 62.0364346,64 L55,60.7149296 C58.3474301,59.1739155 59.9674692,57.812 61.0019519,55.7336902 C62.085231,53.6084508 62.4268056,51.1470423 62.4268056,44.6726761 L62.4268056,30 L70,30 Z M62,19 L69,19 L69,26 L62,26 L62,19 Z M73.5593782,32.1691535 C76.9032699,30.6638358 80.0999952,30 83.5891038,30 C87.4778033,30 90.0303104,30.9910788 91.1618343,32.9264872 C91.7953316,34.0110639 92,35.4228837 92,38.4428689 L92,53.1968522 C88.609327,53.6643421 84.3298086,54 81.1905853,54 C74.8458653,54 72,51.8775955 72,47.1662316 C72,42.070591 75.7824668,39.7144416 85.0695386,38.9655227 L85.0695386,37.3667069 C85.0695386,36.0483852 84.3775645,35.5715455 82.4673262,35.5715455 C79.6701916,35.5715455 76.5221968,36.3288792 73.5691244,37.7874479 L73.5593782,32.1691535 Z M85,44 C79.7165933,44.4503694 78,45.1808684 78,46.9994596 C78,48.3613764 78.9867842,49 81.1659324,49 C82.3582966,49 83.4478708,48.9099262 84.9989721,48.6847415 L84.9989721,44 L85,44 Z M95,31.6721429 C99.4115335,30.5225446 103.0436,30 106.724683,30 C110.549934,30 113.318916,30.8645739 114.961468,32.5367167 C116.507907,34.1138514 117,35.8429991 117,39.5293139 L117,53.9990499 L109.531149,53.9990499 L109.531149,39.8238391 C109.531149,36.9925974 108.560419,35.9380072 105.899083,35.9380072 C104.879336,35.9380072 103.957623,36.0330154 102.458279,36.4700526 L102.458279,54 L95,54 L95,31.6721429 Z M120.55936,57.8051389 C123.094195,59.1360252 125.630894,59.7504981 128.315824,59.7504981 C133.061064,59.7504981 135.084083,57.7966439 135.084083,53.1338228 L135.084083,52.9922392 C133.67636,53.7001573 132.258382,53.9937074 130.384524,53.9937074 C124.036717,53.9937074 120,49.7556371 120,43.0445726 C120,34.7100157 125.975833,30 136.547743,30 C139.652193,30 142.523576,30.3303618 146,31.0477189 L143.520169,36.3335081 C141.592241,35.9559518 143.361684,36.2768746 141.908279,36.135291 L141.908279,36.8998427 L142.001506,39.9958049 L142.047187,43.9979025 C142.094733,44.9993707 142.094733,45.9980074 142.142278,46.9994756 L142.142278,48.9995805 C142.142278,55.285894 141.619276,58.2317777 140.071713,60.6670162 C137.815626,64.23398 133.910359,66 128.361505,66 C125.537667,66 123.094195,65.5743052 120.55936,64.5728369 L120.55936,57.8051389 L120.55936,57.8051389 Z M134.85393,36.0038862 L134.612092,36.0038862 L134.069407,36.0038862 C132.608706,35.9574256 130.897461,36.3291101 129.725998,37.0353104 C127.92769,38.0202741 127,39.8043591 127,42.3318129 C127,45.9362224 128.857316,48 132.175332,48 C133.199758,48 134.032648,47.815087 135,47.5353944 L135,47.0141071 L135,45.045109 C135,44.1995271 134.950665,43.2610239 134.950665,42.2760603 L134.903265,38.949485 L134.85393,36.5614128 L134.85393,36.0038862 Z M158.175941,30 C165.516318,30 170,34.6984896 170,42.3083131 C170,50.110304 165.328078,55 157.88176,55 C150.531925,55 146,50.3024713 146,42.7416503 C146.012297,34.8906567 150.684219,30 158.175941,30 Z M158.524079,49 C161.338055,49 163,46.6257859 163,42.5004808 C163,38.4232561 161.384325,36 158.572237,36 C155.663834,36 154,38.3751758 154,42.5004808 C154,46.6257859 155.672332,49 158.524079,49 L158.524079,49 Z" id="Shape"></path>
            </g>
        </g>
    </g>
</svg>