<?xml version="1.0" encoding="UTF-8"?>
<svg width="65px" height="15px" viewBox="0 0 65 15" version="1.1" xmlns="http://www.w3.org/2000/svg" xmlns:xlink="http://www.w3.org/1999/xlink">
    <!-- Generator: Sketch 50.2 (55047) - http://www.bohemiancoding.com/sketch -->
    <title>YouTube Logo</title>
    <desc>Created with Sketch.</desc>
    <defs></defs>
    <g id="Page-1" stroke="none" stroke-width="1" fill="none" fill-rule="evenodd">
        <g id="Music-(Desktop-HD)" transform="translate(-756.000000, -600.000000)" fill="#FFFFFF" fill-rule="nonzero">
            <g id="YouTube" transform="translate(728.000000, 587.000000)">
                <g id="YouTube-Logo" transform="translate(28.000000, 13.000000)">
                    <path d="M43.9803813,13.745148 L43.9803813,3.10465268 L42,3.10465268 L42,1 L47.67656,1 L47.67656,3.10465268 L45.6969781,3.10465268 L45.6969781,13.745148 L43.9803813,13.745148 Z M53.0441726,4.17375678 L53.0441726,13.745148 L51.4710584,13.745148 L51.4710584,12.7941253 C51.1393296,13.5981834 50.6545259,14 50.0146489,14 C48.9842911,14 48.4687125,13.230347 48.4687125,11.6918905 L48.4687125,4.17375678 L50.0178463,4.17375678 L50.0178463,10.4278246 C50.0178463,10.9409266 50.0454237,11.3074887 50.1009783,11.5283605 C50.200497,11.9089394 50.3995343,12.0996537 50.6972909,12.0996537 C51.0194276,12.0996537 51.2340522,11.8932236 51.3415643,11.4790891 C51.4003163,11.2412272 51.4306914,10.8449324 51.4306914,10.287656 L51.4306914,4.17375678 L53.0441726,4.17375678 Z M54.4278416,13.745148 L54.4278416,1 L56.0325299,1 L56.0325299,4.98376135 C56.3011104,4.27357381 56.7551393,3.91890479 57.3934176,3.91890479 C58.2087511,3.91890479 58.7427147,4.53649611 58.9941092,5.771254 C59.122804,6.39436712 59.186352,7.47196628 59.186352,9.004901 C59.186352,10.4932366 59.1164092,11.5572437 58.9769232,12.1969222 C58.7135385,13.3985493 58.1743792,13.9995752 57.3602447,13.9995752 C56.6811997,13.9995752 56.2123829,13.5811932 55.9529949,12.7435797 L55.9529949,13.7442985 L54.4278416,13.745148 Z M56.8234834,5.77805006 C56.3850418,5.77805006 56.115662,6.26906489 56.015344,7.2506698 C55.9949606,7.44945436 55.9853685,8.15242109 55.9853685,9.36084428 C55.9853685,10.2927531 56.0033538,10.8742403 56.0397241,11.1061557 C56.1440388,11.8171927 56.4054251,12.1735607 56.8242828,12.1735607 C57.2147636,12.1735607 57.4513702,11.7377638 57.5357013,10.86617 C57.5560846,10.6839509 57.5660764,10.058714 57.5660764,8.98833562 C57.5660764,7.88015422 57.5576833,7.24769653 57.5416964,7.09393583 C57.4569656,6.21639548 57.217961,5.77805006 56.8234834,5.77805006 Z M63.4444715,10.4609554 L64.9528385,10.4609554 C64.9528385,10.5051297 64.9548369,10.5671437 64.9588336,10.6469973 C64.9636297,10.7268509 64.9652284,10.7892897 64.9652284,10.8330393 C64.9652284,11.9361236 64.7737849,12.7389074 64.3904982,13.2439391 C64.0072115,13.7476965 63.4128973,14 62.6059569,14 C61.771439,14 61.1703303,13.6937529 60.8034302,13.0821081 C60.5116687,12.5961903 60.3262203,11.8881265 60.2454863,10.9570672 C60.2095157,10.5488793 60.1915304,9.77965105 60.1915304,8.64895772 C60.1915304,7.73913612 60.2095157,7.09181206 60.2454863,6.70613605 C60.3178272,5.92289094 60.4748988,5.32781154 60.7190992,4.92004836 C61.1187725,4.25318565 61.7606478,3.91932954 62.6475229,3.91932954 C63.5020244,3.91932954 64.1259145,4.28036986 64.5211914,5.00160099 C64.84093,5.5856368 65,6.7639025 65,8.53809711 L65,9.26485003 L61.8501746,9.26485003 C61.8385841,9.37018885 61.8321893,9.5744952 61.8321893,9.87734431 C61.8321893,10.5896556 61.8597668,11.0976606 61.9161207,11.4009345 C62.032026,12.0248971 62.27183,12.336666 62.6347333,12.336666 C63.174692,12.336666 63.4444715,11.7114291 63.4444715,10.4609554 Z M61.8369854,7.74593217 L63.3905156,7.74593217 L63.3905156,7.34156701 C63.3905156,6.79108672 63.354545,6.40031366 63.2822041,6.16924786 C63.1706953,5.80056198 62.9448798,5.61621904 62.6059569,5.61621904 C62.3225885,5.61621904 62.1203538,5.74279553 62.0008515,5.99594851 C61.8573688,6.30984121 61.7970181,6.75838071 61.8213982,7.34156701 L61.8297913,7.47366529 C61.8345874,7.56711102 61.8369854,7.65800823 61.8369854,7.74593217 Z" id="Shape"></path>
                    <path d="M26.3169361,13.7448993 L26.3169361,8.34132554 L24,1 L25.8240115,1 L27.1604272,5.79454191 L28.4793337,1 L30.2515785,1 L27.9761318,8.34090318 L27.9761318,13.7448993 L26.3169361,13.7448993 Z M30.8194886,8.96387264 C30.8194886,7.3154321 30.9321571,6.14678363 31.1578747,5.45666017 C31.493977,4.43161144 32.1589494,3.91845354 33.1527921,3.91845354 C34.1458734,3.91845354 34.8135104,4.43118908 35.153419,5.45666017 C35.3791366,6.14044834 35.4918051,7.30951917 35.4918051,8.96387264 C35.4918051,10.6173814 35.3791366,11.7864522 35.153419,12.4698181 C34.8135104,13.4897986 34.1462541,14 33.1527921,14 C32.1589494,14 31.493977,13.4872645 31.1578747,12.4617934 C30.9321571,11.7784276 30.8194886,10.6118908 30.8194886,8.96387264 Z M32.3949442,9.08762183 C32.3949442,10.272742 32.4006538,10.9168291 32.4120729,11.0215724 C32.491626,11.8755686 32.7348529,12.3025666 33.141373,12.3025666 C33.5482737,12.3025666 33.7968295,11.9363873 33.8878017,11.2036062 C33.9068335,11.0435348 33.9163495,10.4459064 33.9163495,9.40987654 L33.9163495,8.47605588 C33.9163495,7.50591293 33.9049304,6.92179987 33.8824728,6.7237167 C33.786933,5.99642625 33.5437061,5.63278103 33.1527921,5.63278103 C32.7725359,5.63278103 32.5350186,5.95292398 32.4398594,6.59194282 C32.4097891,6.79551657 32.3945636,7.33274854 32.3945636,8.20321637 L32.3949442,9.08762183 Z M41,4.17397661 L41,13.7448993 L39.4934396,13.7448993 L39.4934396,12.7937622 C39.1756079,13.5979207 38.7104698,13.9995776 38.0987864,13.9995776 C37.1114146,13.9995776 36.6177287,13.2304743 36.6177287,11.6922677 L36.6177287,4.17397661 L38.1014509,4.17397661 L38.1014509,10.4277453 C38.1014509,10.9413255 38.1280955,11.3075049 38.181004,11.5275504 C38.2761632,11.908512 38.4668622,12.0994152 38.7519592,12.0994152 C39.060275,12.0994152 39.2661995,11.8924626 39.3689714,11.4789799 C39.4253056,11.2411956 39.4546147,10.8446069 39.4546147,10.2879467 L39.4546147,4.17397661 L41,4.17397661 Z" id="Shape"></path>
                    <path d="M13.9913295,7.00850643 C11.9508671,5.9636004 9.99710983,5.00296736 8,4 L8,10 C10.101569,8.90524233 12.3166804,7.90267062 14,7.00850643 L13.9913295,7.00850643 Z" id="Shape" fill-opacity="0"></path>
                    <path d="M8.6972475,14.9814115 C4.69788866,14.9065203 3.33191183,14.8391579 2.49229972,14.663223 C1.92424661,14.5463293 1.43060923,14.2867857 1.06866044,13.9103484 C0.788919603,13.6254448 0.566451615,13.1907588 0.393853858,12.5876666 C0.245801606,12.0852219 0.188139151,11.6671784 0.10593119,10.6460427 C-0.019913224,8.34145404 -0.0499132855,6.45728635 0.10593119,4.35201129 C0.234502882,3.18941445 0.296840672,1.80927648 1.1508684,1.00409693 C1.55411598,0.627263396 2.02320785,0.384758533 2.54996217,0.284507339 C3.372821,0.125611179 6.87854248,0 10.5077707,0 C14.1288171,0 17.6423308,0.125611179 18.4659688,0.284507339 C19.1240221,0.410118518 19.7411663,0.786555806 20.1035047,1.27196178 C20.882727,2.51856358 20.8963634,4.0686927 20.9754545,5.28121702 C21.0081818,5.85894919 21.0081818,9.13950109 20.9754545,9.71723326 C20.8523374,11.6334972 20.7533761,12.3114805 20.4736353,13.0144277 C20.3006479,13.4582274 20.1529853,13.692411 19.8974003,13.9519546 C19.4965541,14.3513578 18.9855385,14.6170246 18.4324623,14.7135467 C14.9715461,14.9782415 12.0327089,15.0356978 8.6972475,14.9814115 Z M13.9971285,7.28148589 C12.07167,6.23499023 10.2280299,5.26457453 8.34348055,4.26008135 L8.34348055,10.2696055 C10.3266015,9.17318232 12.4172551,8.16868914 14.0053103,7.27316464 L13.9971285,7.28148589 Z" id="Shape"></path>
                </g>
            </g>
        </g>
    </g>
</svg>